<svg width="183" height="185" viewBox="0 0 183 185" fill="none" xmlns="http://www.w3.org/2000/svg">
<path d="M27.8567 4.1017L118.47 1L155.177 4.36017M27.8567 4.1017L56.8632 7.97881M27.8567 4.1017V13.9237L28.6268 14.0678M155.177 4.36017L56.8632 7.97881M155.177 4.36017V14.1822L153.637 14.2632M56.8632 7.97881V19.3517M56.8632 19.3517L28.6268 14.0678M56.8632 19.3517L153.637 14.2632M56.8632 19.3517C56.8632 19.3517 57.1194 21.0183 57.6332 21.9364C58.087 22.7472 59.1734 23.7458 59.1734 23.7458M28.6268 14.0678C28.6268 14.0678 29.3119 15.692 30.1669 16.5085C31.3398 17.6285 34.0174 18.5763 34.0174 18.5763M34.0174 18.5763L59.1734 23.7458M34.0174 18.5763V24.5212M59.1734 23.7458L148.503 18.3178M59.1734 23.7458V30.2076M148.503 18.3178V21.678M148.503 18.3178C148.503 18.3178 151.816 18.0326 152.867 16.5085C153.392 15.7466 153.637 14.2632 153.637 14.2632M34.0174 24.5212L59.1734 30.2076M34.0174 24.5212L16.3055 25.5551M59.1734 30.2076L148.503 24.0042V21.678M59.1734 30.2076L41.2048 30.9831M41.2048 30.9831C41.2048 30.9831 38.7838 34.3357 39.1513 36.6695C39.4475 38.5505 41.7182 40.8051 41.7182 40.8051M41.2048 30.9831L16.3055 25.5551M41.7182 40.8051L161.851 30.9831M41.7182 40.8051C41.7182 40.8051 45.1628 59.1417 44.7986 71.822C44.7286 74.2581 44.5039 77.0018 44.1889 79.8347M41.7182 40.8051L20.1559 34.4058M161.851 30.9831C161.851 30.9831 166.524 29.7097 166.728 27.3644C166.887 25.5517 165.947 24.4242 164.418 24.0042C161.594 23.2288 148.503 21.678 148.503 21.678M161.851 30.9831C161.851 30.9831 169.53 40.9115 173.146 48.0424C177.025 55.6922 180.59 68.7203 180.59 68.7203M16.3055 25.5551C16.3055 25.5551 13.1886 26.5976 12.9684 28.6568C12.6947 31.2155 17.3322 33.5678 17.3322 33.5678M17.3322 33.5678L15.022 37.1864M17.3322 33.5678L20.1559 34.4058M15.022 37.1864H12.1984C12.1984 37.1864 11.1715 37.4449 11.1715 38.2203C11.1715 38.9958 12.455 38.9958 12.455 38.9958H13.9952M15.022 37.1864H18.4874M13.9952 38.9958C13.9952 38.9958 2.79877 61.4831 1.41711 77.25C0.239298 90.6907 1.67372 108.784 4.24076 132.305C4.92374 138.563 5.56942 143.062 7.32116 149.106C9.21464 155.638 10.6891 159.193 13.4818 165.39C15.5753 170.035 17.9418 174.695 19.482 176.763C20.3143 177.88 21.9527 179.494 21.9527 179.494M13.9952 38.9958H17.974M30.6803 184C30.6803 184 27.5173 183.796 25.6427 182.708C24.0805 181.8 21.9527 179.494 21.9527 179.494M30.6803 184C30.6803 184 35.1144 181.193 37.0977 178.314C39.6643 174.588 40.6914 166.941 40.6914 166.941L40.4231 134.114M30.6803 184L165.958 149.881C165.958 149.881 172.84 143.87 175.713 139.025C179.54 132.572 180.59 119.64 180.59 119.64L181.873 91.7246V75.9576M20.1559 34.4058L18.4874 37.1864M18.4874 37.1864H21.9527V38.9958H17.974M17.974 38.9958L14.2519 65.6186M14.2519 65.6186L44.1889 79.8347M14.2519 65.6186L10.9149 67.6864L13.9952 72.8559L14.7653 73.2523M44.1889 79.8347C43.8939 82.4872 43.5197 85.2179 43.1189 87.8475M43.1189 87.8475C41.7936 96.5423 40.1781 104.131 40.1781 104.131L40.3597 126.36M43.1189 87.8475L14.7653 73.2523M14.7653 73.2523L15.7921 108.784M15.7921 108.784L40.3597 126.36M15.7921 108.784L12.7117 110.852L13.2251 114.729L15.7921 116.558M40.3597 126.36L40.4231 134.114M40.4231 134.114L15.7921 116.558M15.7921 116.558C15.7921 116.558 17.3244 132.87 20.1559 142.903C23.0922 153.307 30.6803 168.492 30.6803 168.492M30.6803 168.492L35.0442 163.322V175.987L21.9527 179.494M30.6803 168.492L21.9527 179.494M45.5686 87.3305V96.1186M45.5686 87.3305L180.59 68.7203M45.5686 87.3305C45.5686 87.3305 48.2318 89.6568 48.2318 91.9831C48.2318 93.663 45.5686 96.1186 45.5686 96.1186M45.5686 96.1186L181.873 75.9576M181.873 75.9576C181.873 75.9576 182.158 73.5672 181.873 72.0805C181.609 70.7 180.59 68.7203 180.59 68.7203M46.0819 140.835V148.331M46.0819 140.835C46.0819 140.835 48.9876 143.214 48.6489 145.229C48.3766 146.849 46.0819 148.331 46.0819 148.331M46.0819 140.835L177.253 113.695C177.253 113.695 178.925 115.156 179.306 116.538C179.686 117.914 178.633 120.157 178.633 120.157L46.0819 148.331M21.9527 40.8051C25.9625 40.6032 32.2204 40.2881 32.2204 40.2881C32.2204 40.2881 34.1309 41.5805 34.5307 45.1992C34.9304 48.8178 32.9905 51.4025 32.9905 51.4025C32.9905 51.4025 27.2019 51.7176 23.4928 51.9195M21.9527 40.8051C24.2629 41.5805 25.033 44.1653 25.033 45.9746C25.033 47.7839 25.5463 50.6271 23.4928 51.9195M21.9527 40.8051C20.1559 41.5805 19.9339 44.1026 20.1559 46.4915C20.3969 49.0852 21.6959 51.661 23.4928 51.9195M79.7089 105.424V119.381L85.0995 118.347V104.39L79.7089 105.424ZM74.0616 96.8941V102.064L99.4744 97.928C99.4744 97.928 101.528 97.928 101.528 99.4788C101.528 101.03 99.9877 102.064 99.9877 102.064L91.0034 103.614V108.008L99.9877 106.458C99.9877 106.458 102.555 106.458 102.555 108.008C102.555 109.894 100.501 110.852 100.501 110.852L91.0034 112.144V117.055L103.325 114.729C103.325 114.729 107.667 111.369 107.432 107.75C107.197 104.131 104.865 103.097 104.865 103.097C104.865 103.097 106.793 99.9991 106.405 97.928C105.388 92.5 99.4744 93.2754 99.4744 93.2754L74.0616 96.8941ZM111.282 91.7246V96.3771L123.604 94.3093V89.6568L111.282 91.7246ZM111.282 99.9958V104.648L123.604 102.581V97.928L111.282 99.9958ZM111.282 108.784V113.436L123.604 111.369V106.716L111.282 108.784ZM128.738 89.1398V93.2754L136.695 92.2415C136.695 92.2415 139.519 92.2415 139.519 94.3093C139.519 97.1525 136.695 98.4449 136.695 98.4449L128.738 99.4788V110.335L133.101 109.559V103.097L136.695 102.581L139.872 108.008L144.653 107.233L140.802 100.771C140.802 100.771 143.8 96.697 143.626 93.5339C143.369 88.8814 137.561 87.8475 137.561 87.8475L128.738 89.1398ZM147.99 86.2966V95.8602L154.92 94.8263C154.92 94.8263 157.72 94.3234 158.001 97.1525C158.257 99.7373 155.947 100.771 155.947 100.771L147.99 102.064V106.458L158.001 104.39C158.001 104.39 161.988 101.547 161.851 97.1525C161.737 93.4917 160.082 91.7862 158.844 91.0191C158.007 90.5004 156.989 90.4824 156.009 90.581L152.353 90.9492V85.7797L147.99 86.2966Z" stroke="#9D9D9D" stroke-width="0.5" stroke-linecap="round"/>
</svg>
