<svg width="18" height="15" viewBox="0 0 18 15" fill="none" xmlns="http://www.w3.org/2000/svg">
<path d="M4.25036 9.05183L0.34589 7.77899C0.34589 7.77899 -0.120127 7.58937 0.0296805 7.16034C0.0604953 7.07264 0.122837 6.99679 0.309148 6.86643C1.17457 6.26438 16.3234 0.819847 16.3234 0.819847C16.3234 0.819847 16.7512 0.675261 17.0039 0.772442C17.1193 0.815106 17.1931 0.864882 17.2554 1.04502C17.2779 1.11139 17.291 1.25124 17.2893 1.38871C17.2879 1.49064 17.2756 1.58308 17.2665 1.73003C17.1743 3.21857 14.4138 14.3281 14.4138 14.3281C14.4138 14.3281 14.2486 14.9775 13.6567 14.9989C13.441 15.0083 13.1788 14.9633 12.8657 14.6955C11.7045 13.6952 7.69001 10.9978 6.80278 10.4053C6.753 10.3721 6.73854 10.327 6.73001 10.2844C6.71768 10.2227 6.78571 10.1445 6.78571 10.1445C6.78571 10.1445 13.7757 3.93203 13.9618 3.2802C13.9762 3.23042 13.9222 3.20435 13.8489 3.22568C13.3846 3.39634 5.33623 8.47822 4.44805 9.03998C4.39614 9.07316 4.25036 9.05183 4.25036 9.05183Z" fill="white"/>
</svg>
