<svg width="21" height="22" viewBox="0 0 21 22" fill="none" xmlns="http://www.w3.org/2000/svg">
<path d="M17.9472 2.08068C17.4171 1.59155 15.2749 0.0364391 10.5033 0.0153116C10.5033 0.0153116 4.87633 -0.324009 2.13328 2.19208C0.606334 3.71935 0.0691833 5.95406 0.0125232 8.72464C-0.0441369 11.4952 -0.117444 16.6875 4.88753 18.0953H4.89234L4.88913 20.2436C4.88913 20.2436 4.85712 21.1134 5.42981 21.2907C6.12253 21.5058 6.52908 20.8448 7.19043 20.1322C7.55344 19.741 8.05474 19.1664 8.43247 18.7272C11.8554 19.0153 14.4881 18.3569 14.7871 18.2595C15.4782 18.0355 19.389 17.5345 20.0251 12.3426C20.6816 6.99123 19.7075 3.60635 17.9472 2.08068Z" fill="white"/>
<path d="M16.8341 3.16177C16.386 2.75459 14.4515 1.53911 10.4152 1.52151C10.4152 1.52151 5.63561 1.20748 3.31543 3.30902C2.02409 4.58404 1.58906 6.48007 1.54136 8.79385C1.49366 11.1076 1.24653 15.5278 5.47876 16.7035C5.47876 16.7035 5.46211 19.985 5.46019 20.2734C5.46019 20.4751 5.4922 20.6131 5.60744 20.6416C5.69035 20.6617 5.81456 20.6188 5.92019 20.5135C6.59691 19.8339 8.76344 17.2202 8.76344 17.2202C11.6704 17.41 13.9832 16.8361 14.2319 16.7548C14.8184 16.5662 17.9904 16.2938 18.5272 11.9575C19.082 7.48779 18.3233 4.43678 16.8341 3.16177Z" fill="#7360F2"/>
<path fill-rule="evenodd" clip-rule="evenodd" d="M10.5852 6.92231C10.593 6.77347 10.7199 6.65911 10.8688 6.66688C11.4256 6.69593 11.8889 6.86448 12.2189 7.20564C12.5475 7.54549 12.7087 8.02027 12.737 8.59047C12.7443 8.73932 12.6297 8.86598 12.4808 8.87336C12.3319 8.88075 12.2053 8.76606 12.1979 8.61721C12.1737 8.12911 12.0398 7.79683 11.8309 7.58085C11.6233 7.36619 11.3065 7.23016 10.8406 7.20586C10.6918 7.19809 10.5774 7.07114 10.5852 6.92231Z" fill="white"/>
<path fill-rule="evenodd" clip-rule="evenodd" d="M10.1761 5.46843C10.187 5.31979 10.3163 5.20812 10.465 5.21899C11.5982 5.30193 12.5103 5.68914 13.1748 6.4144L13.1749 6.4145C13.8321 7.13262 14.1444 8.02596 14.1217 9.0738C14.1185 9.2228 13.9951 9.34098 13.8461 9.33775C13.6971 9.33453 13.5789 9.21112 13.5821 9.06212C13.6021 8.13806 13.3304 7.38388 12.7767 6.77887C12.2247 6.17636 11.4531 5.83246 10.4256 5.75727C10.2769 5.74639 10.1653 5.61707 10.1761 5.46843Z" fill="white"/>
<path fill-rule="evenodd" clip-rule="evenodd" d="M9.69984 4.08634C9.70087 3.9373 9.82253 3.81733 9.97156 3.81837C11.5376 3.82927 12.8614 4.35063 13.9242 5.38671C14.9959 6.43146 15.5259 7.85378 15.5393 9.62029C15.5405 9.76932 15.4206 9.89105 15.2715 9.89219C15.1225 9.89332 15.0008 9.77343 14.9996 9.62439C14.987 7.96909 14.4946 6.69649 13.5475 5.77318C12.5914 4.8412 11.4044 4.36807 9.96781 4.35806C9.81877 4.35703 9.6988 4.23537 9.69984 4.08634Z" fill="white"/>
<path d="M10.9081 12.2181C10.9081 12.2181 11.2875 12.2501 11.4917 11.9985L11.8899 11.4976C12.082 11.2491 12.5455 11.0907 12.9995 11.3436C13.3396 11.5376 13.6698 11.7485 13.9889 11.9755C14.2901 12.197 14.907 12.7117 14.9089 12.7117C15.2028 12.9598 15.2707 13.3241 15.0706 13.7083C15.0706 13.7105 15.069 13.7143 15.069 13.7163C14.8486 14.0983 14.5689 14.4427 14.2402 14.7368C14.2364 14.7387 14.2364 14.7406 14.2328 14.7425C13.9473 14.9811 13.6668 15.1168 13.3913 15.1494C13.3507 15.1565 13.3095 15.1591 13.2683 15.1571C13.1469 15.1583 13.026 15.1397 12.9105 15.102L12.9015 15.0889C12.477 14.9692 11.7683 14.6696 10.588 14.0184C9.90504 13.6461 9.25481 13.2166 8.6443 12.7345C8.3383 12.493 8.04641 12.2341 7.77007 11.9592L7.74062 11.9297L7.71117 11.9003L7.68172 11.8708C7.6718 11.8612 7.6622 11.8513 7.65227 11.8414C7.37732 11.565 7.11846 11.2731 6.87696 10.9671C6.39493 10.3567 5.96541 9.70657 5.59298 9.02372C4.94187 7.84314 4.64224 7.13504 4.52252 6.70993L4.5094 6.70097C4.47187 6.58543 4.45338 6.46456 4.45466 6.34308C4.45242 6.30196 4.45489 6.26072 4.46202 6.22016C4.49638 5.94508 4.63221 5.66434 4.86952 5.37794C4.87145 5.37442 4.87337 5.37442 4.87529 5.37058C5.16925 5.04192 5.51375 4.76226 5.89581 4.54212C5.89773 4.54212 5.90157 4.5402 5.90381 4.5402C6.28795 4.34013 6.65224 4.408 6.90001 4.70026C6.90193 4.70218 7.41571 5.31904 7.63627 5.62027C7.8633 5.93966 8.0742 6.27021 8.26817 6.6107C8.52106 7.0643 8.3626 7.52878 8.1142 7.72021L7.61322 8.11843C7.36033 8.32267 7.39362 8.702 7.39362 8.702C7.39362 8.702 8.13564 11.5104 10.9081 12.2181Z" fill="white"/>
</svg>
