<svg width="21" height="21" viewBox="0 0 21 21" fill="none" xmlns="http://www.w3.org/2000/svg">
<path fill-rule="evenodd" clip-rule="evenodd" d="M14.8627 12.7943C14.6091 12.6672 13.3622 12.0538 13.1297 11.9694C12.8972 11.8848 12.7282 11.8423 12.5589 12.0962C12.3902 12.3498 11.904 12.9211 11.7561 13.0903C11.6082 13.2593 11.4603 13.2807 11.2066 13.1536C10.953 13.0268 10.1359 12.7592 9.16716 11.8954C8.41315 11.2232 7.90424 10.3928 7.75633 10.139C7.60842 9.88511 7.74044 9.74787 7.86726 9.62153C7.98151 9.50799 8.12112 9.32546 8.24794 9.17731C8.37475 9.0294 8.41695 8.92345 8.50133 8.75444C8.58619 8.5852 8.54377 8.43705 8.48024 8.31023C8.41695 8.18318 7.90969 6.93542 7.69849 6.42768C7.49251 5.93346 7.28368 6.0003 7.12771 5.99248C6.98003 5.98513 6.81079 5.9837 6.64178 5.9837C6.47277 5.9837 6.19804 6.04699 5.96551 6.30086C5.73298 6.55472 5.07781 7.16795 5.07781 8.41595C5.07781 9.66371 5.98661 10.8693 6.11343 11.0385C6.24024 11.2078 7.90163 13.7687 10.4458 14.8669C11.0509 15.1281 11.5233 15.2841 11.8917 15.4009C12.4992 15.5939 13.0522 15.5666 13.4891 15.5015C13.9762 15.4287 14.9895 14.888 15.201 14.2956C15.4124 13.7035 15.4124 13.196 15.3489 13.0903C15.2853 12.9846 15.1163 12.9211 14.8627 12.7943ZM10.2353 19.1103H10.2317C8.71798 19.1099 7.23343 18.7034 5.93802 17.9349L5.62987 17.7521L2.43698 18.5894L3.28936 15.4773L3.0886 15.1582C2.24427 13.8154 1.79817 12.2635 1.79888 10.6699C1.80077 6.01997 5.5853 2.23688 10.2386 2.23688C12.4918 2.23782 14.61 3.11627 16.2029 4.71035C17.7956 6.30442 18.6721 8.42329 18.6717 10.6768C18.6698 15.3272 14.885 19.1103 10.2353 19.1103ZM17.4151 3.4991C15.4989 1.58099 12.9503 0.524263 10.2353 0.523079C4.64048 0.523079 0.0872375 5.07468 0.0851042 10.6695C0.084393 12.4577 0.551585 14.2032 1.44 15.7421L0 21L5.38074 19.5892C6.86317 20.3975 8.53238 20.8234 10.231 20.8241H10.2353C15.8291 20.8241 20.3828 16.2721 20.3852 10.6775C20.3864 7.96629 19.3315 5.41673 17.4151 3.4991Z" fill="white"/>
</svg>
